# xmcd CD database file
#
# Track frame offsets:
#	150
#	16207
#	31345
#	46560
#	63545
#	79657
#	94800
#	110332
#	124212
#	140627
#
# Disc length: 2076 seconds
#
# Revision: 9
# Processed by: cddbd v1.5.2PL0 Copyright (c) Steve Scherf et al.
# Submitted via: CDex 1.70beta2
#
DISCID=7c081a0a
DTITLE=Kinleys - Just Between You And Me
DYEAR=1997
DGENRE=Country
TTITLE0=Just Between You And Me
TTITLE1=Talk To Me
TTITLE2=You Make It Seem So Easy
TTITLE3=(Ooh, Aah) Crazy Kind Of Love Thing
TTITLE4=Please
TTITLE5=The Real Thing
TTITLE6=Takin' Our Own Sweet Time
TTITLE7=Love Rules
TTITLE8=Contradiction
TTITLE9=Dance In The Boat
EXTD=YEAR: 1997
EXTT0=
EXTT1=
EXTT2=
EXTT3=
EXTT4=
EXTT5=
EXTT6=
EXTT7=
EXTT8=
EXTT9=
PLAYORDER=
